<svg width="200" height="200" viewBox="0 0 200 200" fill="none" xmlns="http://www.w3.org/2000/svg">
<path d="M104.31 40.1582C95.7251 39.5333 87.1064 40.7641 79.0397 43.7671C70.973 46.77 63.6474 51.4745 57.561 57.561C51.4745 63.6474 46.77 70.973 43.7671 79.0397C40.7641 87.1064 39.5333 95.7251 40.1582 104.31C42.3186 136.056 70.0437 160 101.849 160H123.993C127.294 160 129.995 157.3 129.995 153.999C129.995 150.698 127.294 147.998 123.993 147.998H101.969C79.5854 147.998 59.0617 133.475 53.4807 111.811C44.539 77.0049 76.9449 44.539 111.751 53.5407C133.475 59.0617 147.998 79.5854 147.998 101.969V108.571C147.998 113.312 143.737 117.992 138.996 117.992C134.255 117.992 129.995 113.312 129.995 108.571V101.069C129.995 86.0066 119.313 72.4441 104.43 70.3437C99.6948 69.6396 94.86 70.0769 90.328 71.619C85.7961 73.1612 81.6981 75.7637 78.3752 79.2098C75.0524 82.656 72.6008 86.846 71.2247 91.4311C69.8486 96.0163 69.5877 100.864 70.4637 105.57C71.5163 111.241 74.1822 116.488 78.1418 120.682C82.1014 124.876 87.1867 127.838 92.7878 129.214C103.83 131.795 114.332 128.254 121.233 121.233C126.574 128.554 137.256 132.395 147.038 128.494C155.079 125.314 160 117.092 160 108.451V101.909C160 70.0437 136.056 42.3186 104.31 40.1582V40.1582ZM99.9891 117.992C90.0273 117.992 81.9858 109.951 81.9858 99.9891C81.9858 90.0273 90.0273 81.9858 99.9891 81.9858C109.951 81.9858 117.992 90.0273 117.992 99.9891C117.992 109.951 109.951 117.992 99.9891 117.992Z" fill="#F52222"/>
</svg>
