<svg width="200" height="200" viewBox="0 0 200 200" fill="none" xmlns="http://www.w3.org/2000/svg">
<path d="M29.3213 91.5489L30.558 93.3058C28.0845 93.2364 25.4947 93.0072 25 91.9933C25 91.9447 25.0145 91.8961 25.0291 91.8475C26.4113 91.5003 27.5971 91.4794 29.3213 91.5489V91.5489ZM42.4596 96.8961L43.0562 98.6322L41.6594 98.6878L41.994 96.91C42.1495 96.91 42.3049 96.903 42.4596 96.8891V96.8961ZM47.2174 109.57C45.9806 110.653 45.0276 111.375 44.2929 113.021C43.2744 112.222 42.7433 110.639 42.416 108.868C42.0522 106.938 41.9358 104.792 41.6594 103.188L41.7467 102.368L43.1798 102.271L46.8318 108.868L47.2174 109.563V109.57ZM45.3696 93.3058C45.551 92.1199 45.7377 90.9347 45.9297 89.7503L46.4026 89.7225C46.0534 90.9169 45.7042 92.1114 45.3696 93.3058ZM44.3729 77.1809L50.9203 78.8753C50.9096 78.9678 50.8999 79.0604 50.8912 79.1531C47.843 81.3058 45.0276 82.2503 43.5145 86.1392L44.0892 77.4864L44.3729 77.1878V77.1809ZM50.4838 68.2225C50.0618 72.2503 50.6584 74.0281 51.3931 76.5281C52.5571 77.3197 53.0227 77.7989 52.6444 78.9725C50.6802 78.042 48.5996 77.0697 45.5878 77.2225C45.5144 77.1421 45.4416 77.0611 45.3696 76.9795C46.2134 73.8059 47.8576 71.8545 49.1307 69.3406L50.4911 68.2156L50.4838 68.2225ZM59.8974 62.8614L60.1811 62.8406C59.2791 65.8128 58.9153 72.667 57.3367 75.3892C53.6047 73.7017 53.6774 66.3892 57.8532 63.5003L59.8902 62.8614H59.8974ZM56.42 84.8753L59.5628 88.1322C58.3261 91.7572 55.9908 94.4864 55.0015 98.6878L53.1464 98.5489C51.5605 94.3197 55.5252 87.4308 56.2018 84.3475L59.1117 84.667C59.4755 85.535 59.8247 86.4031 60.1811 87.2781L56.42 84.8683V84.8753ZM65.0189 62.8337C64.6988 66.3545 65.5136 68.1809 65.7318 70.9031C63.884 71.8059 62.029 72.6948 60.1811 73.5906C60.5244 69.9461 61.4391 66.3715 62.8947 62.9864L65.0189 62.8337V62.8337ZM67.1723 57.4865L67.5869 57.4587L66.9613 59.174L65.7318 59.2503L66.6776 58.1879L67.1723 57.4865V57.4865ZM67.5869 73.91L62.029 77.1739C62.1454 75.2017 64.7788 72.542 66.9831 71.8059L67.4924 72.0698L67.5869 73.91ZM71.2971 61.5628C70.9552 63.3823 70.6205 65.1948 70.2932 67.0142L69.2529 67.6392L68.7 68.2156C67.6961 66.8684 67.4414 63.5628 67.6597 61.049L71.2971 61.5628V61.5628ZM74.9927 57.4656C74.9927 57.5351 74.9782 57.5906 74.9709 57.6462L73.5523 58.9448C72.6066 59.292 72.4902 59.2781 71.2971 59.2365C71.4499 58.6462 71.6245 58.0559 71.7918 57.4656H74.9927V57.4656ZM78.7029 50.299L77.0442 53.8754L71.2971 53.4795L71.3189 53.1879C73.6833 52.1462 75.7566 50.9101 78.6956 50.292L78.7029 50.299ZM75.7057 59.6045L76.3167 59.2573L76.8478 61.049L74.9927 60.7017L75.7057 59.5976V59.6045ZM80.5507 64.9031C78.3464 65.7226 75.2983 65.4934 73.5305 66.4309C73.4035 65.713 73.275 64.9955 73.1449 64.2781L74.2943 62.8406C76.164 63.5351 78.0336 64.2434 79.896 64.9448L80.5507 64.9031ZM75.8148 68.1253L73.2977 68.2156C73.2395 67.9656 73.1958 67.7156 73.1449 67.4587C74.9127 66.7712 77.8808 66.7087 80.5507 66.4239L77.7353 67.9031L75.8148 68.1253V68.1253ZM82.3985 68.1253C80.2815 68.6323 78.2519 70.417 76.8624 71.8059C76.5932 70.1809 79.8596 67.3198 81.4237 66.4239C82.1148 67.0142 82.1875 66.9517 82.3985 68.1253ZM86.1087 46.7157L86.0796 46.9934L83.8535 48.2782L80.5507 48.5073L80.5798 48.2295L86.1087 46.7157ZM83.1115 52.0906L82.3985 51.0837C84.0717 49.7434 87.7601 50.4795 89.8116 50.6809L83.1115 52.0906ZM99.6836 46.8129C102.775 47.0559 105.605 47.7504 107.759 49.0351L108.326 49.0004L107.984 49.4587L105.023 50.292C103.241 50.0559 101.459 49.8059 99.6836 49.5629L87.9565 47.9726L87.9856 47.7434C91.814 46.8755 95.7578 46.5641 99.6836 46.8198V46.8129ZM112 45.8684L111.345 46.7157C109.57 46.5944 107.873 45.9706 106.471 44.924L112.029 45.5976L112 45.8684ZM121.865 52.4934L123.4 51.9379L124.993 53.2434C124.774 54.7365 123.269 55.9587 122.112 57.4101L121.224 57.4656C118.809 53.6462 115.761 49.4726 110.414 48.0004L110.181 47.549L112.342 46.7157C115.972 47.924 118.998 49.7573 122.367 50.8129C122.803 51.8198 122.665 51.4795 121.857 52.4934H121.865ZM126.331 60.9865L125.909 60.5906L124.993 60.6531L126.52 59.2642L126.331 60.9865V60.9865ZM127.968 80.7642C130.471 82.8336 131.111 85.8336 130.071 89.7225C128.994 87.4169 127.924 85.1045 126.841 82.7989C127.204 82.285 127.546 81.7711 127.903 81.2572C127.924 81.0906 127.939 80.9239 127.968 80.7642ZM128.696 64.6531L128.667 64.9864L127.35 66.4239L126.841 65.4726C127.633 64.1184 127.059 64.8476 128.099 64.7087L128.696 64.6531V64.6531ZM130.238 64.6323L136.101 66.7087C136.092 66.8944 136.075 67.0797 136.05 67.2642C135.556 67.5906 135.061 67.9031 134.566 68.2156L128.696 66.1462L128.747 65.5837L130.238 64.6323V64.6323ZM141.659 71.8059L138.408 69.7434L137.957 68.91C139.368 68.0767 139.164 68.1184 140.655 68.3962C140.983 69.535 141.325 70.667 141.659 71.7989V71.8059ZM143.507 71.1253L142.852 71.8059C142.067 71.417 141.929 70.9239 141.659 70.0073L143.354 70.7156L143.507 71.1253ZM142.125 65.9934L141.659 66.0281C142.169 65.5628 142.678 65.0976 143.202 64.6392C142.838 65.0906 142.474 65.542 142.125 65.9934ZM150.92 75.0073L150.011 75.3892C148.358 74.5053 146.707 73.6187 145.057 72.7295C144.539 72.0591 144.022 71.3878 143.507 70.7156C146.075 68.91 146.17 71.0073 148.592 72.1531L150.92 75.0073V75.0073ZM152.768 76.5906L150.92 75.9447L152.033 75.3892L152.768 76.5906V76.5906ZM150.513 79.4795C151.182 80.7642 151.182 80.4031 152.768 80.2086L149.924 82.5558L147.21 77.6114L147.246 77.3059C149.247 76.8961 149.887 77.5836 151.844 77.8614L152.593 79.0142L150.52 79.4795H150.513ZM150.92 82.6947L154.623 80.7642C153.881 82.3614 152.914 83.1808 151.771 84.3475L150.92 82.6947ZM158.326 89.535C157.322 90.3614 156.667 90.6253 154.769 90.778L156.296 90.9378L156.267 91.1947L151.051 93.3058L150.92 86.9169L154.514 82.8545L155.169 82.5558L158.326 89.535ZM156.471 79.7295C166.699 77.0072 164.721 82.1878 160.159 86.1392C158.923 84.0072 157.693 81.8683 156.471 79.7295V79.7295ZM165.732 80.7642C161.963 97.6669 161.236 98.5905 147.908 105.854C147.685 105.513 147.452 105.177 147.21 104.847L147.683 102.959C156.376 100.597 161.316 96.2503 160.8 86.41L165.157 81.0628L165.732 80.7642V80.7642ZM166.183 80.7642C166.037 80.1808 165.892 79.5975 165.732 79.0142L167.114 78.9725L166.183 80.7642ZM143.507 97.2016L143.638 95.3336L143.755 93.7364L145.035 93.3267C145.1 93.3267 145.159 93.3128 145.217 93.3058C145.581 95.4239 145.217 96.9864 144.489 98.6878C143.864 98.3058 143.74 98.1461 143.507 97.2016V97.2016ZM136.101 112.882L136.131 112.57L138.56 107.021L139.07 105.854L143.347 106.132C143.413 106.438 143.456 106.736 143.478 107.021C143.667 109.132 142.903 110.82 142.118 113.021L136.101 112.882V112.882ZM137.957 120.077L138.007 117.299L138.08 116.604L141.208 116.827L141.659 116.792C140.939 117.924 140.226 119.056 139.521 120.195L137.957 120.077V120.077ZM136.123 108.479L136.312 108.389L137.789 107.66L137.957 107.646L137.738 108.389L136.873 111.229L136.101 108.702L136.123 108.479V108.479ZM133.235 117.403L132.399 116.604C133.213 117.146 132.682 116.618 133.235 117.403ZM128.696 115.271C129.736 114.646 130.864 114.84 132.406 114.854L131.947 116.292C130.674 116.778 130.493 116.597 129.059 116.452L128.696 115.271V115.271ZM130.965 121.979L132.399 125.215C131.293 125.931 130.18 126.639 129.074 127.361C128.085 126.063 129.161 122.431 130.965 121.979V121.979ZM127.306 110.729L126.841 110.764L127.452 109.438L127.306 110.736V110.729ZM132.639 111.229L132.399 111.084L133.213 109.445L133.482 109.438L134.254 111.16L132.639 111.229V111.229ZM145.464 87.9308L145.362 87.3267C145.85 86.7572 146.163 86.4031 146.999 86.1461L147.217 87.2017C146.854 87.4308 146.49 87.6531 146.133 87.8892L145.464 87.9308V87.9308ZM145.362 92.3058C145.028 92.7294 144.431 92.9655 144.009 93.3058L143.507 84.3475L145.362 92.3058V92.3058ZM141.965 104.32C143.187 103.667 143.362 104.271 143.507 105.847H139.804L139.87 105.292L141.965 104.32ZM140.146 99.3683L140.983 98.6878L141.659 99.8405L141.347 100.479L139.804 100.306L140.146 99.3683ZM139.804 104.118L137.876 105.854L136.618 105.653L136.109 105.702C136.4 105.153 136.705 104.604 137.003 104.063L139.804 104.118V104.118ZM132.82 103.097C132.049 102.584 132.602 102.653 132.457 102.264L132.82 103.097ZM138.655 95.0975L132.399 92.0003C132.69 87.9031 133.213 83.1947 132.791 78.9725C137.615 80.6392 141.943 88.1322 138.655 95.0975V95.0975ZM134.254 95.0975C135.789 95.8753 135.709 96.5836 137.84 97.2086C138.211 98.535 137.644 99.0627 136.756 100.472L134.486 100.389C134.021 98.028 134.53 96.6739 134.254 95.0975ZM134.676 106.688C133.897 106.174 134.457 106.243 134.312 105.854L134.676 106.688ZM147.21 89.4378L147.232 89.1044L148.905 87.9308C149.196 89.7642 149.087 92.8197 148.651 95.0975C147.661 94.3614 147.479 91.2503 147.21 89.4378ZM147.21 95.0975C147.588 94.5003 147.967 93.903 148.33 93.3058L147.676 95.0697L147.21 95.0975V95.0975ZM158.013 89.7433L158.326 89.7225C158.413 96.5905 153.976 97.8405 148.141 100.417L147.21 100.479L150.848 93.285L158.013 89.7433V89.7433ZM147.028 76.3267C147.086 76.5072 147.152 76.6809 147.203 76.8614L146.745 77.1809L145.355 75.3892L147.028 76.3267V76.3267ZM145.355 79.3128L145.406 79.0003C145.542 78.99 145.677 78.9807 145.813 78.9725L147.21 80.7642C146.133 80.2781 145.959 80.1531 145.355 79.3059V79.3128ZM147.203 83.8961L144.708 86.1392L139.346 78.7086L132.391 72.9448L133.919 71.8059C137.287 73.1948 143.18 75.8406 144.366 79.1461C144.751 80.2225 143.42 81.1114 144.322 82.0072C145.399 83.0767 146.475 82.3128 147.21 83.8892L147.203 83.8961ZM131.576 95.0975L132.144 95.3128L132.391 100.479L131.526 100.285C130.711 99.7086 130.143 97.0419 130.885 95.8822L131.576 95.0975V95.0975ZM127.473 104.084L128.07 104.063L128.688 105.466L127.743 105.813L126.833 105.854C127.052 105.264 127.27 104.674 127.473 104.084ZM125.786 132.736L124.985 130.118C126.128 129.806 127.262 129.493 128.405 129.167L128.696 129.153C128.681 129.234 128.669 129.315 128.659 129.396L125.786 132.729V132.736ZM123.13 125.57C123.472 124.514 123.712 124.354 124.331 123.771L124.84 123.965L124.985 124.424L123.843 125.493L123.13 125.563V125.57ZM124.003 127.361L123.13 126.445L124.985 125.57L124.505 127.327L124.003 127.361V127.361ZM122.054 135.486C121.792 135.292 121.544 135.09 121.283 134.882L121.85 134.847L124.709 132.736L124.985 134.889L122.796 136.32L122.054 135.486ZM122.199 156.014C117.74 156.195 115.07 155.111 111.432 154.806L107.264 146.938L106.464 146.146C113.462 145.354 117.863 142.132 123.05 139.903C124.884 141.57 129.038 150.056 125.378 153.813C124.505 155.097 123.523 155.229 122.192 156.014H122.199ZM103.052 147.174L104.725 147.07C107.249 148.688 108.966 151.583 110.174 154.243L102.761 152.195C103.314 150.403 103.546 148.583 103.052 147.174ZM97.7266 140.41L106.078 138.111L119.202 139.333L119.435 139.965C115.528 141.646 111.083 143.063 106.602 145.229C101.75 145.597 100.578 143.868 97.2174 142.729L97.7339 140.41H97.7266ZM97.2101 148.854L97.3774 147.299L100.571 147.07C100.833 148.424 101.109 149.181 100.717 150.653L97.2101 148.847V148.854ZM93.4999 151.66L94.7439 151.007C96.2716 150.042 97.4138 151.326 99.0579 151.833L98.4032 152.445L93.5072 151.66H93.4999ZM97.101 148.861C96.6974 148.69 96.2949 148.516 95.8934 148.34L95.355 147.07L97.2101 147.181L97.101 148.861ZM91.6521 148.861L93.5072 150.382C93.5072 151.32 93.4199 151.215 93.1944 152.445L91.6521 148.861V148.861ZM86.8507 142.146C88.5894 141.639 90.9028 141.75 93.5072 141.695L91.0847 143.486L86.1014 143.021L86.8507 142.146V142.146ZM82.3985 52.3337C85.8395 49.1948 94.4675 50.1323 96.6281 52.1254L97.2101 52.0768C94.3365 54.6392 89.8843 54.9309 87.149 57.4656C85.0029 56.1045 83.2278 55.2295 82.3985 52.3337V52.3337ZM101.313 57.4656L102.768 59.042C101.473 59.1115 100.113 59.1878 98.7524 59.299C95.6897 59.549 92.6633 59.9865 90.5463 61.0351L90.2699 61.049C90.1169 60.82 89.9641 60.5908 89.8116 60.3615C93.2866 58.6213 97.123 57.6394 101.044 57.4865L101.313 57.4656ZM108.53 48.5073C110.923 50.799 114.495 52.1601 115.732 55.674C110.712 53.4448 102.986 53.4795 99.0725 49.9309C102.521 50.6323 105.46 50.3684 108.53 48.5073ZM110.181 61.049L117.049 61.9517L117.587 61.9101L112.08 66.4239C111.207 64.7642 111.003 62.5142 110.181 61.049ZM119.006 68.7156L117.587 68.5073L119.435 68.2156L118.998 68.7156H119.006ZM117.587 64.4309L119.282 62.8406L119.435 64.6323L118.205 64.3753L117.587 64.4309ZM120.948 123.736L120.133 123.771L119.435 123.146L119.973 122.472L121.283 121.986L120.948 123.743V123.736ZM119.471 127.014C119.689 126.764 119.922 126.514 120.155 126.264L120.213 125.57L121.29 127.202L119.435 127.361L119.471 127.014V127.014ZM118.736 132.736L117.587 131.417L121.29 130.945L119.522 132.681L118.736 132.736ZM119.435 138.111L115.732 137.688L118.351 136.32L119.442 138.111H119.435ZM116.838 133.056L117.587 133.736L114.903 134.389L112.029 134.528L116.03 132.736L116.838 133.056V133.056ZM106.478 55.674C108.639 55.7295 110.923 56.2504 112.029 57.4656C110.538 57.3267 107.853 57.5559 107.177 56.4587L106.478 55.674ZM108.355 62.8406C109.41 63.7226 109.781 64.7642 109.592 66.4239C107.962 65.8892 108.384 64.1878 108.355 62.8406ZM110.174 74.1392L110.239 73.8336C113.928 73.0698 114.721 74.292 113.04 75.3892C111.585 75.1948 110.93 74.6739 110.181 74.1392H110.174ZM114.924 120.188L115.732 120.382C115.721 120.465 115.711 120.549 115.703 120.632L113.884 121.979L114.641 120.209L114.924 120.188ZM113.906 76.4795L115.288 75.3892L115.732 77.1809L113.884 76.792L113.899 76.4795H113.906ZM119.435 124.396L114.961 125.514L113.884 125.563C113.884 125.507 113.899 125.445 113.913 125.389C115.586 125.07 116.663 124.542 117.652 123.771L119.224 124.049L119.442 124.396H119.435ZM116.241 120.188L115.732 119.195L117.005 118.396L117.587 118.695L116.859 120.139L116.241 120.188V120.188ZM104.623 132.584L106.827 130.945L113.651 131.5L113.884 131.986L109.272 134.528C107.562 134.257 106.085 133.535 105.198 132.542L104.616 132.584H104.623ZM101.197 132.736L104.616 134.528L99.0652 133.59C99.7781 133.313 100.484 133.021 101.197 132.736ZM100.92 136.396C100.912 136.539 100.905 136.683 100.898 136.827L99.8436 137.382L99.0652 137.479L99.0943 137.049C99.9018 136.028 99.7636 136.368 100.913 136.396H100.92ZM92.1905 63.4587C92.0151 63.2789 91.8381 63.1007 91.6594 62.9239C93.4999 61.9656 96.4026 61.5073 99.2543 61.292C101.604 61.1045 103.918 61.0837 105.576 61.049L106.478 66.4239C104.056 66.1739 101.75 65.8684 99.2543 65.7642C97.0983 65.6622 94.937 65.7366 92.7943 65.9864C92.597 65.143 92.3957 64.3004 92.1905 63.4587V63.4587ZM94.9113 135.368L95.3623 136.132L94.9258 137.736L89.8116 138.111C90.3572 136.514 91.172 135.743 92.0522 134.528L94.9113 135.368ZM88.5967 129.153C86.2687 129.028 83.0824 127.403 82.3985 125.57L89.8116 127.368L88.5967 129.153ZM91.2011 129.056L89.8116 129.153L89.8552 128.722L91.3975 127.361C91.3248 127.924 91.2666 128.486 91.2011 129.056ZM86.1087 63.5212L88.3639 62.8406L89.8116 64.5767L88.2839 64.6323L86.1014 63.5212H86.1087ZM86.0796 140.465C85.9559 140.854 85.8468 141.25 85.7304 141.646C85.5503 141.655 85.3707 141.671 85.1921 141.695C84.8802 141.097 84.5674 140.5 84.2536 139.903L86.1087 140.083L86.0796 140.465V140.465ZM87.1053 132.736L91.4266 133.57L91.6594 134.125L88.3057 138.111L84.2536 137.542L87.1053 132.736V132.736ZM119.435 76.5697L120.271 75.3961L120.577 75.3892L122.905 75.9447L123.138 76.2642L120.541 77.1809C120.172 76.9764 119.804 76.7727 119.435 76.5697V76.5697ZM124.447 70.7781L123.138 70.0142C124.469 70.4795 123.705 69.9517 124.447 70.7781ZM124.025 78.9725L123.138 78.2503L124.993 77.1809L124.025 78.9725ZM123.138 91.5142L126.018 92.1947C126.797 92.4864 126.775 92.5628 126.841 93.3058C125.604 92.8544 123.538 92.5419 123.138 91.5142ZM123.429 86.6322L123.821 86.1461L124.993 87.9308L123.138 87.5836L123.429 86.6322V86.6322ZM85.9123 145.597L86.1087 146.07L83.6134 146.979L82.3985 147.07L82.4276 146.827L83.2788 145.556C84.4573 145.035 84.4864 145.375 85.9123 145.597V145.597ZM80.5507 55.667C82.1657 56.8198 82.5877 58.2365 82.333 62.8406C81.2709 61.542 80.6235 58.7851 80.5507 55.674V55.667ZM81.6128 52.0906L81.4819 53.3893L80.558 53.4518L81.6201 52.0906H81.6128ZM80.5507 53.8823C80.4998 54.3129 80.4634 54.7434 80.4052 55.174L78.6956 54.8754L80.1069 53.9101L80.5434 53.8823H80.5507ZM80.5507 157.826L81.4673 148.702L87.9565 147.07L81.1327 157.493L80.5507 157.826V157.826ZM81.009 133.299L82.0057 132.736C82.915 133.764 82.1003 135.243 81.2418 136.32C80.5289 135.681 80.4489 135.278 80.638 133.827L81.0017 133.299H81.009ZM74.9927 132.424L77.1243 129.153L80.5434 131.07C79.3795 132.82 78.1937 134.57 77.0151 136.32C75.953 135.417 75.2983 134.09 74.9927 132.431V132.424ZM74.9927 146.458L78.4119 143.486L80.0196 143.625L80.5507 144.458C80.4052 145.333 80.2743 146.202 80.1433 147.07L74.9927 146.458ZM69.442 144.028L73.5159 141.695L76.615 142.16L76.8478 142.57L73.5814 145.278C71.9518 145.118 70.8679 144.702 70.0167 143.993L69.4347 144.028H69.442ZM68.8964 140.563L70.3877 139.903L71.0279 140.035L71.2898 140.327L66.9758 141.695L65.7391 141.278L68.8964 140.563ZM63.884 138.882L64.9753 136.361C66.9977 136.111 67.4778 137.063 68.9983 137.667L69.4347 138.306L67.1723 139.785L65.3317 139.903L63.884 138.882V138.882ZM60.1739 146.236L62.8728 141.695C64.6624 141.695 64.8807 141.833 65.6155 142.736C65.9428 143.264 65.6591 142.979 64.9462 143.097L64.7788 144.66L67.5869 145.077C67.034 146.389 66.9467 146.215 66.1174 147.049C63.353 147.188 62.109 146.688 60.1811 146.236H60.1739ZM57.0602 139.903L61.7671 141.257L62.029 141.792L59.0099 145.278L54.6232 143.903L57.0602 139.903ZM38.9241 135.056L38.9822 134.521L41.6085 136.452L41.834 136.965C36.3706 140.993 44.7294 154.118 54.2376 145.611L58.3261 147.181C56.7547 149.854 54.0557 150.91 51.2113 152.424C44.4093 152.965 34.8865 142.361 38.9168 135.056H38.9241ZM45.2677 136.889L45.3696 138.104C44.8603 137.736 44.3511 137.382 43.8564 137.014L43.5145 136.313L45.2604 136.889H45.2677ZM54.6232 144.5L51.2404 147C44.5766 147.667 41.8776 143.264 41.6594 137.854L42.9616 136.354L43.529 136.313C46.8827 138.833 49.8509 142.681 54.4049 143.952L54.6232 144.5ZM48.1704 118.389C47.5666 117.972 47.5302 117.764 47.2246 117.056L48.4905 112.459L49.9673 111.222L50.9203 112.556L48.1704 118.389V118.389ZM47.2246 119.938L50.1419 113.347L50.7384 113.014C52.0842 115.278 54.0339 116.306 54.6232 119.382L50.2292 123.764C48.8628 122.792 47.8175 121.467 47.2174 119.945L47.2246 119.938ZM52.7754 125.424L56.4855 121.972L58.3261 125.563C56.476 125.509 54.6258 125.463 52.7754 125.424V125.424ZM62.029 89.2086C60.2757 92.785 57.9405 95.2155 56.5437 98.6808C55.9326 95.535 59.6137 91.0142 60.7995 88.2364L61.3669 87.9239L62.029 89.2086V89.2086ZM62.029 79.3475C64.7861 78.535 66.6339 77.0489 68.6054 75.3823L69.442 77.7711L67.0995 80.7572L62.029 79.3545V79.3475ZM71.2898 79.535L70.2859 80.7572L69.442 80.6183L69.4566 80.4239L71.1443 78.9656L71.2898 79.535V79.535ZM69.8349 71.8128L70.1259 71.7989L71.2898 74.1392L70.8533 75.3823C69.1583 74.535 69.2238 73.5281 69.8349 71.8128V71.8128ZM69.4857 123.764L71.1953 124.938L69.442 124.202C69.4519 124.055 69.4664 123.909 69.4857 123.764V123.764ZM69.4566 125.563L71.2898 126.32C71.2789 126.389 71.2692 126.458 71.2607 126.528L67.3323 129.146C66.2047 128.66 66.0665 127.695 65.7318 126.646L65.7682 126.424L69.4566 125.563ZM63.9786 121.972L65.7391 122.653L64.7934 123.174L63.884 123.271L63.9786 121.972ZM63.884 86.1392C66.1101 86.7364 65.4045 86.3336 65.4991 87.9239C64.4806 87.3544 64.4078 87.0836 63.884 86.1322V86.1392ZM63.884 118.146L64.0368 116.597C64.9025 117.174 65.2008 117.514 65.7391 118.389C65.1209 118.307 64.5026 118.226 63.884 118.146V118.146ZM67.5942 95.7641C66.8958 96.6183 66.9249 96.3891 65.7391 96.8822L66.5466 95.0905L67.5869 95.7641H67.5942ZM67.5942 88.5558L66.4302 89.7156C65.2663 89.0906 65.8119 89.3406 66.3357 88.1808L67.0268 87.9239L67.5869 88.5558H67.5942ZM67.4414 85.5072L65.7391 84.3406C67.0486 84.8197 66.7431 84.5281 67.4414 85.5072ZM63.884 118.389L65.7391 119.799C64.7934 119.778 64.2842 119.584 63.884 118.389ZM69.442 118.32L68.6854 118.389L68.038 117.25L67.5869 116.695L68.5909 116.597C68.8746 117.174 69.151 117.75 69.442 118.32V118.32ZM68.4235 85.1392L67.5869 84.3475C68.4017 84.8892 67.8634 84.3614 68.4163 85.1461L68.4235 85.1392ZM68.5327 114.653L67.5869 112.778L67.9871 111.236L68.2198 111.222L69.442 114.806C69.139 114.754 68.8359 114.703 68.5327 114.653V114.653ZM63.6803 135.507L63.884 135.743L63.222 138.111C62.4429 137.803 61.7568 137.313 61.2258 136.688C60.6948 136.062 60.3358 135.32 60.1811 134.528L63.6803 135.514V135.507ZM58.3261 138.111L60.1811 139.681C58.9953 139.181 58.9226 139.202 58.3261 138.111V138.111ZM61.527 122.222L61.7452 123.771L60.1811 121.979L61.527 122.222ZM59.6937 130.604L58.3261 127.361C59.9483 127.952 61.2142 129.722 62.0362 130.945L59.6937 130.604ZM61.1487 98.7016L61.607 98.6878L60.2539 100.479C60.0356 100.035 60.3048 99.6114 61.0541 99.0905L61.1487 98.6947V98.7016ZM60.1811 114.104L59.8101 114.813L58.748 114.028C58.6072 113.743 58.4665 113.459 58.3261 113.174L59.781 113.021L60.1811 114.104V114.104ZM47.2174 129.153C50.9275 131.459 57.2348 133.597 58.3261 138.111C53.9272 136.014 50.1182 132.943 47.2174 129.153V129.153ZM56.842 127.417L58.3261 129.153L54.6232 127.361L56.842 127.417V127.417ZM70.4023 132.736L67.5869 130.028L72.512 125.57L73.1449 130.479L70.4023 132.736ZM73.1449 135.729L73.6323 134.563L74.2871 134.528L74.9927 136.32L73.1449 135.729ZM75.6402 129.153L74.9927 127.361L76.3386 127.597L75.6402 129.153V129.153ZM73.1449 68.8059L73.1595 68.6462C73.7706 68.5073 74.3816 68.3684 74.9927 68.2156L73.7124 70.0073L73.1449 68.8059V68.8059ZM54.4704 105.854L52.7754 102.271C54.9505 102.722 54.5941 104.202 54.4704 105.854ZM49.9382 107.646C48.3522 106.597 47.341 104.507 47.2174 102.271C50.4692 103 50.2874 104.222 50.9275 107.056L49.9382 107.646ZM48.0249 98.2919C45.6606 96.16 49.1016 87.6322 50.6147 85.6669C51.415 84.7017 52.4189 84.7225 53.7429 84.3475L54.6232 84.5628C52.3971 88.3267 50.8984 93.4517 50.3674 98.6878L48.0249 98.2919V98.2919ZM44.5693 127.361L45.6969 129.174L44.6857 131.431L44.1037 132.021C44.9331 132.132 45.1222 131.452 46.3589 130.486C48.7596 134.202 52.4262 137.757 56.471 139.778L54.2667 143.486L47.5738 139.375C46.81 138.021 47.8648 136.465 46.6354 135.639C45.5223 134.889 44.0892 135.972 42.9543 135.646L39.8116 132.896C40.7355 130.924 41.623 128.993 43.449 127.986L44.5693 127.361V127.361ZM38.1675 107.597C38.42 105.81 38.7819 104.039 39.2514 102.292L39.4988 102.271L40.4663 107.597L40.9756 110.375C42.4305 114.25 43.9 118.118 45.3696 121.979C41.8485 120.146 39.6734 115.903 39.9862 110.195C39.1423 112.035 39.8407 114.931 40.1171 116.556C37.9565 114.806 37.6801 111.327 38.1602 107.597H38.1675ZM34.952 109.438C34.6155 108.76 34.4039 108.032 34.3263 107.285C34.2227 106.28 34.2325 105.267 34.3554 104.264L34.6755 103.625L36.1087 102.271L35.3012 107.278L34.952 109.431V109.438ZM163.877 127.354L160.174 125.993L163.768 125.57L163.877 127.361V127.354ZM65.8846 156.521L66.8522 156.035L65.7318 157.82L65.8773 156.528L65.8846 156.521ZM37.9565 95.1044L36.3779 94.9655C34.4136 94.3475 32.5731 92.16 32.4058 89.7294C35.4103 89.9864 36.4288 91.3475 37.9128 93.0072C37.9274 93.7017 37.9492 94.403 37.9565 95.1044V95.1044ZM37.7383 94.9586C37.9565 91.0905 34.8647 88.6739 30.849 88.7781C31.5328 83.3475 36.4797 80.5697 40.8883 78.7434L41.7394 78.6809C41.0047 85.5003 41.5648 91.3753 38.895 97.278C36.9235 101.625 29.9323 101.542 30.3106 108.25L30.3616 108.806C31.3582 117.722 41.5139 119.535 42.9179 127.375C27.859 134.688 46.2134 165.417 58.1224 147.368C60.2612 147.66 62.1599 148.583 64.8152 147.695C66.0519 147.042 66.292 146.514 66.7722 145.153L71.0279 147.257L71.2462 147.771C67.3469 150.66 64.597 154.625 60.4067 157.333L60.8068 156.236L59.7156 156.049L59.1117 156.361L58.5661 158.792C60.9596 161.125 68.2126 152.688 70.3368 151.035C69.1365 155.042 66.1683 157.104 64.517 160.771L65.0262 161.271C68.1544 159.132 71.9882 153.077 72.5702 148.472L77.2552 149.215C71.3844 156.792 56.3037 173.458 48.3741 177.91C49.5817 174.292 51.5023 171.528 52.4771 168.556L51.9096 168.597C51.7405 168.43 51.5708 168.263 51.4004 168.097C49.4726 171.722 46.2935 174.271 45.726 179.16C46.065 179.644 46.494 180.066 46.9919 180.403C56.42 178.903 72.1628 156.285 79.685 150.104C77.648 169.618 66.6921 172.66 57.1912 184.479C65.8264 180.368 71.0643 169.882 78.4483 164.063C77.6335 172.208 75.6038 190.424 70.4969 193.667L71.3408 193.604C77.0733 190.201 77.408 176.208 79.3213 169.056L80.136 161.535L88.3202 150.563L88.9168 150.25C89.8334 152.993 93.9801 155.972 98.4687 155.174L101.691 153.882L109.781 156.771C110.843 167.882 110.436 174.111 103.066 182.569C110.596 178.896 113.36 164.743 110.85 157.229C128.361 159.167 127.655 153.528 124.338 141.354L127.415 141.403C126.848 140.59 125.313 141.195 124.142 140.57C123.611 140.243 123.712 140.306 123.385 139.82C127.546 135.34 137.571 139.792 135.461 147.229C138.342 141.063 131.977 135.577 125.844 137.785C128.463 134.82 131.635 132.382 133.293 128.459L133.89 128.153L148.294 142.597L149.145 142.535L149.8 141.688C145.217 136.507 140.641 131.32 136.072 126.132L137.542 125.493C137.867 125.173 138.266 124.931 138.707 124.785C139.148 124.639 139.618 124.594 140.081 124.653C139.838 124.538 139.595 124.422 139.353 124.306C146.708 125.007 156.107 130.861 163.782 128.972C164.488 127.799 164.524 127.167 164.095 126.021C172.272 126.215 186.982 123.604 191.667 119.813C179.081 122.334 164.91 123.188 153.357 121.715L143.122 120.57L142.547 120.611L145.304 115.889C153.743 115.736 175.873 115.535 180.347 110.479L179.358 109.216L175.502 108.688C175.232 109.099 175.081 109.571 175.065 110.056L178.121 110.368C171.486 111.965 153.008 115.334 146.977 113.368C146.344 112.632 146.81 110.077 146.839 108.236C146.85 107.907 146.835 107.577 146.795 107.25C155.467 104.778 161.905 99.2086 164.546 90.8058C166.052 85.9933 165.055 79.6739 168.314 76.6739C170.395 76.8475 170.817 77.6878 172.345 78.2572C171.537 77.1878 170.38 76.5906 168.933 76.1045L166.219 77.8892C163.739 78.8059 161.141 76.41 156.929 78.2781C153.51 75.4864 151.582 71.0767 146.963 69.3892L146.49 68.6253L152.092 63.4239C150.258 64.8892 148.389 66.6184 146.519 68.3545L142.765 66.7503L142.547 66.2295C146.825 63.3406 150.622 62.2712 155.489 63.1878C155.714 63.6184 155.954 64.042 156.187 64.4726C155.962 64.8406 155.758 64.9448 155.562 65.0489L153.925 64.6323C154.63 65.0281 155.365 65.1531 156.1 65.2781L156.718 64.7017L156.813 63.8962C155.751 62.9934 155.423 62.3406 153.336 62.2712L154.332 60.8684C151.946 62.4378 147.101 62.8545 144.729 64.2156L150.215 60.0906L150.869 59.2503L140.721 65.0281C138.553 64.8892 136.247 63.917 135.076 62.7573C134.889 62.771 134.702 62.7849 134.516 62.7989L146.563 55.0212L146.366 54.2365C141.798 56.7781 137.222 59.3198 132.66 61.8684L128.281 60.8406L128.688 57.0837L160.094 33.5421L160.654 33.5004L160.21 32.4657C159.046 31.9379 154.267 35.6393 152.463 36.7435C145.508 41.0004 139.361 46.299 132.522 50.1462C135.345 46.7226 140.51 43.3129 141.368 38.3268L139.986 38.1601L137.833 39.9101L140.175 38.9379C138.662 43.3337 131.809 51.1809 127.939 53.667L127.488 52.6323C130.005 48.5907 132.486 43.1532 131.322 37.9657L129.212 36.7851L126.95 36.9448C128.397 37.4935 129.379 37.6254 130.442 38.299C131.118 43.3268 128.528 46.7295 127.132 50.799L126.535 51.1045C125.604 49.4587 125.662 48.667 123.749 48.3684L123.581 47.3129L124.891 45.6184L125.793 45.0212C126.098 45.5768 126.113 45.3754 126.208 46.3268C126.476 45.9179 126.624 45.4479 126.637 44.9657L125.567 44.5073L122.738 47.3684C120.373 45.8615 117.769 44.2782 114.444 43.6879C116.328 39.9587 122.054 33.9657 119.1 29.2365C115.492 23.4865 103.175 30.1115 98.6651 34.674C98.1418 35.1828 97.6872 35.752 97.312 36.3685C97.7584 36.0295 98.2095 35.6962 98.6651 35.3685C103.117 32.2018 114.968 24.6185 117.536 30.681C120.228 34.0629 115.07 40.5698 113.666 43.2157C108.864 42.7504 103.845 42.3129 98.6796 42.4101C93.2431 42.4554 87.8449 43.2842 82.6677 44.8684C80.0487 45.6948 68.8746 52.0837 68.4454 52.0004L63.353 47.292L52.7026 42.1879L52.6444 42.7226L52.0188 43.299L65.6664 54.3267L63.5858 55.542C57.9696 51.4795 54.0994 49.0143 45.7406 46.9379L44.3293 47.042C49.2107 50.2504 54.1285 53.1879 59.039 56.1323L60.0211 57.3962C56.5146 58.8059 55.0306 61.7365 52.0697 63.5559C47.4429 61.4448 43.158 59.5281 37.5491 57.9101L37.1563 59.0073L47.6611 65.4656L48.2286 65.4239L46.4171 66.6184C45.5805 69.3059 43.9437 72.4239 42.576 76.2156C37.3381 80.285 30.5507 80.042 29.4959 88.3336C27.8226 88.7711 26.6441 88.91 25.1164 89.9794L25 91.0558C25.9603 92.3336 34.4646 95.7711 36.4943 96.1044L37.7455 94.9516L37.7383 94.9586ZM99.8654 37.6254L100.644 37.7643L99.6035 37.6393C99.4216 37.6393 99.2398 37.6532 99.0652 37.6601C99.8872 36.2018 102.302 35.8407 104.623 36.0004L104.463 37.056L99.9236 37.2712L99.8654 37.6185V37.6254ZM103.11 39.549L105.292 38.8685C106.238 37.3685 106.777 35.7782 106.296 34.3268C104.048 33.9032 102.754 34.424 100.651 35.2712C100.268 35.865 99.8878 36.46 99.509 37.056L99.0725 37.7504C99.2069 37.8994 99.3528 38.0387 99.509 38.1671C100.222 38.7226 101.08 38.9171 102.659 38.7921C103.095 39.5004 102.586 39.1879 101.808 39.3823L103.117 39.549H103.11ZM156.966 55.6809L154.623 56.0976L156.064 56.0004L157.715 56.6809L155.212 61.0559C156.5 59.6045 157.78 58.5767 158.326 56.3754L156.966 55.6809V55.6809ZM143.507 125.577C142.925 124.584 142.292 123.931 141.659 123.778C142.22 124.285 142.867 124.882 143.507 125.577ZM136.101 147.077L134.254 148.104L135.672 147.979L136.109 147.077H136.101ZM143.507 125.577C145.391 127.604 146.803 131.493 146.395 134.535C148.534 130.125 146.097 127.375 143.507 125.577Z" fill="#F52222"/>
</svg>
