<svg width="200" height="200" viewBox="0 0 200 200" fill="none" xmlns="http://www.w3.org/2000/svg">
<path fill-rule="evenodd" clip-rule="evenodd" d="M55.4019 55V89.7359C60.6817 83.4306 67.0089 80.2537 74.3507 80.2537C78.1304 80.2537 81.5203 80.9735 84.5509 82.412C87.5976 83.8361 89.8768 85.6673 91.4085 87.8891C92.9551 90.127 94.002 92.5829 94.5629 95.2898C95.1271 97.9821 95.4081 102.175 95.4081 107.854V144.999H79.0057V111.547C79.0057 104.913 78.708 100.703 78.0838 98.9194C77.459 97.121 76.365 95.712 74.7877 94.664C73.2094 93.6004 71.2418 93.0674 68.8676 93.0674C66.1497 93.0674 63.7123 93.7561 61.5886 95.1023C59.4338 96.4635 57.871 98.4978 56.8869 101.22C55.8862 103.943 55.3858 107.964 55.4025 113.284L55.3858 145H39V55H55.4019ZM119.995 55V89.7359C125.274 83.4306 131.601 80.2537 138.942 80.2537C142.707 80.2537 146.112 80.9735 149.159 82.412C152.189 83.8361 154.47 85.6673 156 87.8891C157.546 90.127 158.593 92.5829 159.156 95.2898C159.718 97.9821 160 102.175 160 107.854V144.999H143.613V111.547C143.613 104.913 143.302 100.703 142.676 98.9194C142.05 97.121 140.958 95.712 139.379 94.664C137.817 93.6004 135.833 93.0674 133.459 93.0674C130.74 93.0674 128.304 93.7561 126.179 95.1023C124.04 96.4635 122.478 98.4978 121.477 101.22C120.493 103.943 119.994 107.964 119.994 113.284V145H103.607V55H119.995Z" fill="#F52222"/>
</svg>
