<svg width="200" height="200" viewBox="0 0 200 200" fill="none" xmlns="http://www.w3.org/2000/svg">
<path fill-rule="evenodd" clip-rule="evenodd" d="M111.323 69.3231C101.814 73.275 82.8045 81.4639 54.3022 93.8816C49.6741 95.7231 47.2459 97.5239 47.0259 99.2839C46.6511 102.266 50.383 103.439 55.4511 105.028C56.1437 105.248 56.8607 105.468 57.5941 105.713C62.5889 107.334 69.303 109.233 72.7904 109.306C75.96 109.371 79.4963 108.068 83.3993 105.395C110.027 87.412 123.773 78.3268 124.637 78.1313C125.248 77.9927 126.096 77.8135 126.666 78.3268C127.236 78.832 127.179 79.7935 127.122 80.0542C126.747 81.6268 112.13 95.2261 104.552 102.266C102.189 104.458 100.519 106.014 100.176 106.373C99.4104 107.163 98.6282 107.921 97.8786 108.646C93.2341 113.111 89.763 116.468 98.0741 121.944C102.067 124.576 105.261 126.751 108.447 128.919C111.926 131.29 115.397 133.653 119.895 136.602C121.036 137.352 122.127 138.126 123.195 138.884C127.245 141.776 130.887 144.368 135.384 143.96C137.992 143.716 140.697 141.263 142.066 133.938C145.301 116.615 151.673 79.1009 153.147 63.6357C153.237 62.3517 153.183 61.0616 152.985 59.7898C152.866 58.7625 152.366 57.8174 151.583 57.1416C150.418 56.1883 148.609 55.9846 147.794 56.0009C144.119 56.0661 138.481 58.0298 111.323 69.3231Z" fill="#F52222"/>
</svg>
