<svg width="1135" height="278" viewBox="0 0 1135 278" fill="none" xmlns="http://www.w3.org/2000/svg">
<g clip-path="url(#clip0_1224_23)">
<path fill-rule="evenodd" clip-rule="evenodd" d="M119.104 278H122.058L136.384 0H133.43L119.104 278ZM96.8982 0H51.8169L45.625 118.033H90.7063L96.8982 0ZM15.2843 0H0V278H0.0294965L15.2843 0ZM37.4918 278H82.5731L89.1518 151.844H44.0705L37.4918 278ZM227.327 0L225.795 33.311H171.387L166.723 118.033H214.914L213.359 151.844H165.169L160.117 244.727H214.525L212.995 278H259.161L264.573 175.939L228.533 0H227.327ZM264.662 0L285.948 120.753H287.114L318.076 0H264.662ZM354.196 0L301.105 175.939L295.692 278H344.96L359.286 0H354.196ZM395.817 0L381.491 278H384.461L398.786 0H395.817ZM439.307 0L464.491 163.503L506.723 0H439.307ZM547.244 0L532.918 278H535.921L547.941 47.3017C549.336 18.6931 561.903 2.9259 585.64 1.1662e-07L547.244 0ZM629.891 1.1662e-07C653.343 2.9259 664.371 18.6931 662.976 47.3017L650.956 278H654.074L668.4 0L629.891 1.1662e-07ZM748.056 1.1662e-07C770.463 2.9259 780.97 18.6931 779.574 47.3017L776.076 116.09C774.781 140.444 766.62 155.859 751.593 162.337L771.321 278H804.132L816.928 33.311H781.951L783.483 0L748.056 1.1662e-07ZM889.968 0L888.437 33.311H853.46L840.663 278H879.116L893.442 0H889.968ZM984.384 0L982.853 33.311H928.444L923.781 118.033H971.971L970.417 151.844H922.226L917.174 244.727H971.582L970.053 278H972.691L987.017 0H984.384ZM1027.54 0L1052.72 163.503L1094.95 0H1027.54ZM1135 9.20269L1121.15 278H1135V9.20269ZM1084.63 278L1097.8 95.8807L1063.6 228.015H1035.62L1014.64 95.8807L1009.21 278H1084.63ZM736.738 278L718.559 165.834H696.407L690.605 278H736.738ZM614.423 278L619.449 176.327H577.477L572.451 278H614.423ZM496.398 278L509.572 95.8807L475.373 228.015H447.391L426.405 95.8807L420.98 278H496.398ZM626.444 49.6335L621.392 142.516H579.42L584.472 49.6335C584.99 38.7518 590.56 33.311 601.183 33.311H611.288C621.91 33.311 626.962 38.7518 626.444 49.6335ZM697.961 133.967H722.057C732.938 133.967 738.768 127.23 739.545 113.758L742.654 53.5198C743.431 40.0472 738.379 33.311 727.497 33.311H703.402L697.961 133.967Z" fill="#F52222"/>
</g>
<defs>
<clipPath id="clip0_1224_23">
<rect width="1135" height="278" rx="8" fill="white"/>
</clipPath>
</defs>
</svg>
